<svg width="103" height="82" viewBox="0 0 103 82" fill="none" xmlns="http://www.w3.org/2000/svg">
<path d="M95.0099 4.89999C95.7699 4.28999 96.5099 4.27998 97.0499 4.51998C97.6199 4.75998 98.1299 5.33999 98.2399 6.24999L102.13 5.76998C101.85 3.51998 100.47 1.72998 98.59 0.919984C96.6799 0.0999835 94.4099 0.359984 92.5499 1.84998L94.9999 4.90999L95.0099 4.89999ZM93.5999 9.53999C93.4899 8.72999 93.5499 7.75999 93.8199 6.86999C94.0899 5.96999 94.5199 5.28999 95.0099 4.89999L92.5599 1.83998C91.2699 2.86998 90.4799 4.32999 90.0599 5.74999C89.6299 7.17999 89.5299 8.70999 89.7199 10.08L93.5999 9.53999ZM94.09 11.05C93.84 10.58 93.6699 10.07 93.5999 9.54999L89.7099 10.06C89.8399 11.06 90.1599 12.03 90.6399 12.92L94.0799 11.05H94.09ZM86.0399 9.57999C86.9199 9.26999 88.0699 9.40999 89.0199 9.96999C89.9599 10.52 90.4099 11.28 90.4099 11.99H94.3299C94.3299 9.51998 92.7899 7.62999 90.9999 6.57999C89.2199 5.53999 86.8799 5.13998 84.7499 5.87998L86.0399 9.57999ZM82.2699 15.38C82.5099 12.67 84.0099 10.29 86.0399 9.57999L84.7499 5.87998C80.7599 7.26998 78.6799 11.41 78.3599 15.04L82.2699 15.38ZM83.7499 24.01C82.8099 20.91 82.0199 18.11 82.2699 15.38L78.3599 15.04C78.0399 18.65 79.0899 22.15 79.9999 25.15L83.7499 24.02V24.01ZM69.4299 17.22C71.7799 16.53 74.5599 17.11 76.7299 18.58C78.8899 20.05 80.1199 22.19 79.9299 24.4L83.84 24.74C84.1899 20.73 81.9199 17.36 78.9499 15.33C75.9799 13.31 71.99 12.37 68.34 13.45L69.4399 17.21L69.4299 17.22ZM60.3199 29.84C60.9899 24.09 64.4399 18.69 69.4199 17.23L68.3199 13.47C61.2999 15.53 57.1999 22.7 56.4199 29.4L60.3099 29.85L60.3199 29.84ZM60.8699 39.17C60.2599 36.01 59.9599 32.89 60.3199 29.84L56.4299 29.38C56.0099 32.97 56.3699 36.53 57.0199 39.91L60.8699 39.17ZM62.2499 45.53C62.4399 45.64 62.32 45.66 62.09 45.11C61.89 44.64 61.7199 44 61.5599 43.25C61.3999 42.51 61.2799 41.74 61.1699 41.02C61.0699 40.34 60.9699 39.64 60.8799 39.17L57.03 39.9C57.1 40.27 57.1799 40.83 57.2999 41.61C57.4099 42.35 57.5499 43.21 57.7399 44.07C57.9199 44.91 58.1599 45.82 58.4899 46.61C58.7799 47.32 59.2999 48.32 60.2499 48.89L62.2699 45.53H62.2499ZM61.6899 44.6C61.6099 44.77 61.5099 44.96 61.4099 45.13C61.2999 45.31 61.2099 45.43 61.1399 45.5C61.0599 45.58 61.1199 45.5 61.3299 45.42C61.4499 45.38 61.6099 45.35 61.7999 45.37C61.9899 45.39 62.1399 45.45 62.2399 45.51L60.2499 48.89C60.9899 49.32 61.7999 49.39 62.5399 49.15C63.1899 48.94 63.6699 48.53 63.9799 48.21C64.5899 47.57 65.0199 46.75 65.2499 46.25L61.6999 44.59L61.6899 44.6ZM62.0799 38.85C62.3399 41.02 62.3699 43.11 61.6799 44.62L65.2499 46.25C66.4299 43.67 66.2299 40.59 65.9699 38.4L62.0799 38.86V38.85ZM57.9599 30.89C60.2299 32.85 61.7099 35.8 62.0799 38.85L65.9699 38.38C65.4999 34.45 63.6 30.58 60.53 27.92L57.9699 30.88L57.9599 30.89ZM39.7299 27.37C46.2799 26.05 53.2899 26.85 57.9599 30.89L60.53 27.93C54.59 22.79 46.1499 22.08 38.9599 23.53L39.7399 27.37H39.7299ZM10.7599 61.08C11.5299 45.18 24.1199 30.52 39.7299 27.37L38.9499 23.53C21.5799 27.04 7.68995 43.2 6.83995 60.9L10.7599 61.09V61.08ZM15.9799 75.32C11.9599 72.49 10.4799 66.78 10.7599 61.09L6.83995 60.9C6.53995 67.05 8.0399 74.53 13.7199 78.53L15.9699 75.32H15.9799ZM27.7199 75.68C23.9899 77.66 19.2499 77.62 15.9899 75.32L13.7299 78.52C18.3899 81.8 24.7499 81.7 29.5599 79.14L27.7199 75.68ZM35.4499 65.68C34.1699 69.92 31.4299 73.69 27.7099 75.68L29.5599 79.14C34.3799 76.57 37.6799 71.84 39.1999 66.82L35.4499 65.69V65.68ZM27.8799 42.67C34.7499 47.8 37.9399 57.47 35.4499 65.68L39.1999 66.82C42.1699 57.03 38.4199 45.64 30.2299 39.53L27.8899 42.67H27.8799ZM3.66991 41.97C10.8299 37.25 21.0099 37.55 27.8799 42.67L30.2199 39.53C22.0299 33.42 10.0499 33.07 1.50994 38.69L3.66991 41.96V41.97ZM98.2499 6.23998C98.3799 7.30998 99.3599 8.07998 100.44 7.94998C101.51 7.81998 102.28 6.83999 102.15 5.75999L98.2599 6.23998H98.2499ZM93.7899 3.36999L95.0099 4.89999L93.78 3.36999H93.7899ZM92.3699 11.99L90.6499 12.93C91.0799 13.72 91.9899 14.11 92.8599 13.89C93.7299 13.67 94.34 12.89 94.34 11.99H92.3799H92.3699ZM81.8799 24.58L79.9999 25.15C80.2699 26.05 81.1399 26.63 82.0799 26.53C83.0099 26.43 83.7499 25.69 83.8299 24.75L81.8799 24.58ZM58.9399 39.54L60.8699 39.17L58.9499 39.54H58.9399ZM61.2299 47.21L60.2199 48.89C60.2199 48.89 60.2299 48.89 60.2399 48.89L61.2399 47.2L61.2299 47.21ZM63.4599 45.43L65.2399 46.26C65.2399 46.26 65.2399 46.26 65.2399 46.25L63.4599 45.44V45.43ZM1.51995 38.69C0.619946 39.29 0.369948 40.5 0.959948 41.4C1.55995 42.3 2.76991 42.55 3.66991 41.96L1.50994 38.69H1.51995Z" fill="#F0E957"/>
</svg>
