<svg width="103" height="82" viewBox="0 0 103 82" fill="none" xmlns="http://www.w3.org/2000/svg">
<path d="M2.66016 40.4502C10.5102 35.2802 21.5901 35.6002 29.1201 41.2202C36.6501 46.8402 40.1201 57.3703 37.3901 66.3703C35.9901 71.0003 32.9702 75.2503 28.7002 77.5303C24.4302 79.8003 18.8799 79.8303 14.9199 77.0403C10.0699 73.6303 8.58012 67.0302 8.87012 61.1102C9.68012 44.3102 22.9202 28.9002 39.4102 25.5702C46.2802 24.1802 54.0101 24.9403 59.3101 29.5303C61.9801 31.8403 63.6698 35.2503 64.0898 38.7403C64.3498 40.9203 64.4598 43.5103 63.5298 45.5503C63.1198 46.4303 62.2498 47.8902 61.2998 47.3302C59.7698 46.4102 59.3298 41.3403 59.0098 39.6603C58.3798 36.3903 58.0499 33.0502 58.4399 29.7302C59.1599 23.5102 62.9399 17.2202 68.9399 15.4602C74.9399 13.7002 82.4899 18.4702 81.9399 24.7002C81.0199 21.6502 80.0999 18.5002 80.3799 15.3302C80.6599 12.1602 82.45 8.90024 85.46 7.85024C88.47 6.80024 92.4302 8.93025 92.4302 12.1103C92.0602 11.4303 91.8202 10.6903 91.7202 9.93032C91.4202 7.76032 92.0601 4.92026 93.8501 3.49026C96.4701 1.39026 99.8698 2.96026 100.26 6.12026" stroke="#F0E957" stroke-width="3.92" stroke-linecap="round" stroke-linejoin="round"/>
</svg>
