<svg width="191" height="75" viewBox="0 0 191 75" fill="none" xmlns="http://www.w3.org/2000/svg">
<path d="M27.6001 42.5596V50.2896H0.709961V42.5596H10.4199V37.4796C9.16992 37.0696 8.00994 36.4896 6.93994 35.7296C5.86994 34.9696 4.95994 34.0596 4.18994 33.0096C3.42994 31.9596 2.83016 30.8096 2.41016 29.5496C1.99016 28.2996 1.77002 26.9797 1.77002 25.5897C1.77002 23.8597 2.09977 22.2396 2.75977 20.7396C3.41977 19.2296 4.31018 17.9097 5.43018 16.7797C6.55018 15.6497 7.86012 14.7497 9.37012 14.0897C10.8801 13.4297 12.5002 13.0996 14.2202 13.0996C15.9402 13.0996 17.5698 13.4297 19.0698 14.0897C20.5698 14.7497 21.9 15.6497 23.04 16.7797C24.17 17.9197 25.07 19.2396 25.73 20.7396C26.39 22.2496 26.7202 23.8697 26.7202 25.5897C26.7202 26.9797 26.5101 28.2897 26.0801 29.5297C25.6601 30.7697 25.0598 31.8996 24.2998 32.9396C23.5398 33.9696 22.6301 34.8796 21.5801 35.6596C20.5301 36.4396 19.3899 37.0296 18.1699 37.4396V42.5696H27.5698L27.6001 42.5596ZM14.23 21.8696C13.21 21.8696 12.3399 22.2296 11.6099 22.9396C10.8799 23.6496 10.52 24.5297 10.52 25.5797C10.52 26.6297 10.8799 27.4696 11.6099 28.1996C12.3399 28.9296 13.21 29.2896 14.23 29.2896C15.25 29.2896 16.1201 28.9296 16.8501 28.1996C17.5801 27.4696 17.9399 26.5997 17.9399 25.5797C17.9399 24.5597 17.5801 23.6496 16.8501 22.9396C16.1201 22.2296 15.25 21.8696 14.23 21.8696Z" fill="#231F20"/>
<path d="M31.6099 38.39V19.4299C31.6099 18.3099 31.98 17.3799 32.73 16.6299C33.48 15.8799 34.4098 15.5099 35.5298 15.5099H36.3901L36.4399 15.46H48.9399C50.2599 15.46 50.9199 14.82 50.9199 13.53V10.1799C50.9199 8.88993 50.2599 8.24994 48.9399 8.24994H31.6099V0.419922H58.75V23.3499H41.3701C40.0801 23.3499 39.4399 23.99 39.4399 25.28V28.6299C39.4399 29.9499 40.0801 30.6099 41.3701 30.6099H58.75V38.39H31.6099ZM31.6602 50.2899V42.5099H58.5498V50.2899H31.6602ZM32.8301 53.9999C33.6401 53.2499 34.5598 52.8799 35.5698 52.8799H58.6499V74.1299H31.71V56.7499C31.71 55.6699 32.0801 54.7499 32.8301 53.9999ZM39.4399 64.52C39.4399 65.81 40.0801 66.45 41.3701 66.45H50.8198V60.5999H41.3701C40.0801 60.5999 39.4399 61.24 39.4399 62.53V64.5099V64.52Z" fill="#231F20"/>
<path d="M62.46 50.2898V42.5098H89.3501V50.2898H79.6401V57.9698H71.8599V50.2898H62.46ZM63.6899 9.4198C64.4299 8.6798 65.3502 8.2998 66.4302 8.2998H89.3599V16.0798H72.2798C71.5998 16.0798 71.1101 16.3898 70.8101 16.9998C70.5101 17.6098 70.3501 18.2498 70.3501 18.9298V19.7398H88.1899V27.5198H70.3501V29.2498C70.3501 30.5398 70.9898 31.1798 72.2798 31.1798H89.3599V38.9598H62.5698V12.1698C62.5698 11.0898 62.9399 10.1698 63.6899 9.4198Z" fill="#231F20"/>
<path d="M104.65 43.6798C102.92 43.6798 101.3 43.3498 99.7998 42.6898C98.2898 42.0298 96.9799 41.1398 95.8599 40.0198C94.7399 38.8998 93.8499 37.5798 93.1899 36.0598C92.5299 34.5298 92.2002 32.9098 92.2002 31.1798C92.2002 29.4498 92.5299 27.8298 93.1899 26.3298C93.8499 24.8198 94.7399 23.5098 95.8599 22.3898C96.9799 21.2698 98.2898 20.3798 99.7998 19.7198C101.31 19.0598 102.93 18.7298 104.65 18.7298C106 18.7298 107.31 18.9398 108.56 19.3698C109.81 19.7898 110.97 20.3898 112.02 21.1498C113.07 21.9098 113.98 22.8198 114.74 23.8698C115.5 24.9198 116.09 26.0598 116.49 27.2798H121.42V18.5898H129.2V43.4498H121.42V35.0598H116.54C116.13 36.3098 115.54 37.4698 114.76 38.5398C113.98 39.6098 113.07 40.5198 112.04 41.2798C111.01 42.0398 109.85 42.6398 108.58 43.0598C107.31 43.4798 106 43.6998 104.64 43.6998L104.65 43.6798ZM104.65 27.4598C103.63 27.4598 102.76 27.8198 102.03 28.5498C101.3 29.2798 100.94 30.1498 100.94 31.1698C100.94 32.1898 101.3 33.0598 102.03 33.7898C102.76 34.5198 103.63 34.8798 104.65 34.8798C105.67 34.8798 106.54 34.5198 107.27 33.7898C108 33.0598 108.36 32.1898 108.36 31.1698C108.36 30.1498 108 29.2798 107.27 28.5498C106.54 27.8198 105.67 27.4598 104.65 27.4598Z" fill="#231F20"/>
<path d="M127.23 46.9797C132.11 43.7597 139.01 43.9598 143.7 47.4598C148.39 50.9598 150.54 57.5097 148.85 63.1097C147.98 65.9897 146.1 68.6397 143.44 70.0497C140.78 71.4597 137.33 71.4797 134.86 69.7497C131.84 67.6197 130.91 63.5197 131.09 59.8297C131.6 49.3697 139.84 39.7798 150.1 37.7098C154.37 36.8498 159.19 37.3197 162.49 40.1697C164.15 41.6097 165.21 43.7298 165.47 45.8998C165.63 47.2498 165.7 48.8697 165.12 50.1397C164.87 50.6897 164.32 51.5997 163.73 51.2497C162.78 50.6797 162.51 47.5197 162.3 46.4797C161.91 44.4497 161.7 42.3597 161.94 40.2997C162.39 36.4297 164.74 32.5097 168.48 31.4197C172.22 30.3297 176.91 33.2897 176.57 37.1697C176 35.2697 175.42 33.3098 175.6 31.3398C175.78 29.3698 176.89 27.3397 178.76 26.6797C180.63 26.0197 183.1 27.3497 183.1 29.3297C182.87 28.9097 182.72 28.4497 182.66 27.9697C182.47 26.6197 182.85 24.8298 183.99 23.9598C185.54 22.7698 187.74 23.6297 187.98 25.5997" stroke="#040404" stroke-width="5.57" stroke-linecap="round" stroke-linejoin="round"/>
<path d="M127.23 46.9796C132.11 43.7596 139.01 43.9597 143.7 47.4597C148.39 50.9597 150.54 57.5096 148.85 63.1096C147.98 65.9896 146.1 68.6396 143.44 70.0496C140.78 71.4596 137.33 71.4797 134.86 69.7497C131.84 67.6197 130.91 63.5197 131.09 59.8297C131.6 49.3697 139.84 39.7797 150.1 37.7097C154.37 36.8497 159.19 37.3196 162.49 40.1696C164.15 41.6096 165.21 43.7297 165.47 45.8997C165.63 47.2497 165.7 48.8697 165.12 50.1397C164.87 50.6897 164.32 51.5997 163.73 51.2497C162.78 50.6797 162.51 47.5196 162.3 46.4796C161.91 44.4496 161.7 42.3596 161.94 40.2996C162.39 36.4296 164.74 32.5096 168.48 31.4196C172.22 30.3296 176.91 33.2896 176.57 37.1696C176 35.2696 175.42 33.3097 175.6 31.3397C175.78 29.3697 176.89 27.3396 178.76 26.6796C180.63 26.0196 183.1 27.3497 183.1 29.3297C182.87 28.9097 182.72 28.4496 182.66 27.9696C182.47 26.6196 182.87 24.8497 183.99 23.9597C185.62 22.6597 187.74 23.6296 187.98 25.5996" stroke="#F0E957" stroke-width="2.44" stroke-linecap="round" stroke-linejoin="round"/>
<path d="M99.8401 8.8099C99.8501 8.1299 100.06 7.4299 100.34 6.8099C100.48 6.5099 100.57 5.96987 101.03 5.96987C101.25 5.96987 101.48 6.06989 101.49 6.29989C101.5 6.45989 101.4 6.64988 101.35 6.78988C101.7 6.95988 101.87 7.2199 101.87 7.6799C101.87 8.4399 101.29 9.8299 100.5 9.8099C100.05 9.7999 99.8201 9.48989 99.8401 8.79989V8.8099ZM101.11 7.25991C100.88 7.42991 100.59 8.53988 100.61 8.97988C101.1 8.91988 101.27 7.89988 101.29 7.72988C101.3 7.56988 101.28 7.37992 101.12 7.26992L101.11 7.25991ZM102.32 6.94992C102.42 6.44992 103.75 5.87987 104.15 5.71987C104.31 5.65987 104.73 5.57992 104.87 5.57992C105.16 5.56992 105.43 5.56992 105.69 5.57992C106.14 5.60992 106.09 5.9799 105.85 6.0599C105.55 6.1499 105.27 6.17988 104.97 6.22988C104.51 6.31988 103.95 6.5499 103.54 6.8099C103.22 7.0099 102.88 7.43989 102.52 7.41989C102.36 7.40989 102.26 7.22993 102.32 6.95993V6.94992ZM106.89 9.70993C106.85 8.68993 106.92 8.09992 106.93 7.57992C106.84 7.63992 106.25 8.06993 106.01 8.20993C105.68 8.40993 105.29 8.63989 104.94 8.85989C104.58 9.07989 103.45 9.73989 103.05 9.79989C102.79 9.83989 102.65 9.7999 102.59 9.4999C102.56 9.3399 102.6 9.10989 102.73 9.04989C103.02 8.91989 103.18 8.84989 103.6 8.66989C103.85 8.56989 104.08 8.44988 104.26 8.34988C104.53 8.20988 104.84 8.02992 105.08 7.88992C105.71 7.48992 106.38 7.07992 106.88 6.51992L107.02 6.37991C107.02 6.37991 107.15 6.04992 107.16 5.94992C107.19 5.78992 107.33 5.23989 107.61 5.16989C107.87 5.09989 108.13 5.3299 108.13 5.6199C108.13 5.9399 107.94 6.2399 107.88 6.5599C107.71 7.4799 107.59 8.3899 107.59 9.3099V10.6799C107.6 10.9299 107.17 11.0099 107.07 10.7399C106.97 10.4699 106.9 10.2599 106.87 9.71987L106.89 9.70993Z" fill="#231F20"/>
<path d="M110.51 6.22013C111.09 6.08013 111.98 5.87018 112.73 5.90018C113.03 5.91018 113.25 5.96013 113.52 6.04013C113.75 6.11013 113.82 6.24015 113.81 6.43015C113.8 6.56015 113.67 6.59016 113.45 6.57016C112.24 6.50016 111.03 6.76017 110.02 7.26017C109.64 7.45017 109.43 7.30015 109.4 7.06015C109.37 6.87015 109.49 6.70013 109.62 6.60013C109.87 6.43013 110.25 6.28018 110.51 6.21018V6.22013ZM110.55 9.90018C110.48 9.77018 110.41 9.60016 110.48 9.19016C110.52 8.96016 110.6 8.77016 110.73 8.50016C110.95 8.04016 111.42 7.39014 111.73 7.30014C111.99 7.24014 112.26 7.42016 112.23 7.63016C112.22 7.79016 112.17 7.85017 112.06 8.01017C112.25 8.10017 112.44 8.30018 112.51 8.59018C112.58 8.91018 112.55 9.09016 112.45 9.38016C112.29 9.74016 112.13 9.88015 111.79 10.0602C111.62 10.1502 111.34 10.2202 111.13 10.2002C110.94 10.2002 110.67 10.0802 110.57 9.90018H110.55ZM111.53 5.05014C111.54 5.58014 110.85 5.66015 110.82 5.24015C110.79 4.92015 110.83 4.48018 110.89 4.09018C110.99 3.46018 111.16 2.98013 111.37 2.60013C111.51 2.31013 111.82 2.22013 112.08 2.35013C112.22 2.42013 112.25 2.51017 112.22 2.70017C112.19 2.86017 112.1 2.97016 112.03 3.13016C111.86 3.53016 111.7 3.92014 111.6 4.36014C111.56 4.55014 111.53 4.85014 111.53 5.05014ZM111.81 8.51017C111.61 8.60017 111.48 8.74018 111.36 8.96018C111.26 9.18018 111.24 9.33017 111.27 9.45017C111.52 9.45017 111.73 9.29016 111.82 9.07016C111.89 8.85016 111.86 8.65017 111.81 8.51017ZM114.52 7.20017C114.52 6.46017 114.58 5.73018 114.58 4.96018C114.58 4.70018 114.62 4.47013 114.96 4.47013C115.26 4.47013 115.39 4.56018 115.39 4.90018C115.39 5.39018 115.29 5.87016 115.29 7.19016C115.29 7.33016 115.29 7.77017 115.33 8.01017C115.79 7.74017 116.28 7.52016 116.84 7.38016C117 7.34016 117.27 7.26015 117.58 7.24015C117.78 6.79015 117.95 6.22019 118.11 5.78019C118.15 5.68019 118.36 5.06016 118.4 4.94016C118.46 4.75016 118.54 4.61014 118.75 4.61014C118.94 4.61014 119.15 4.73018 119.15 4.90018C119.15 5.28018 119.05 5.46018 118.92 5.84018C118.69 6.52018 118.46 7.17017 118.2 7.83017C118.16 7.93017 117.94 8.41016 117.9 8.57016C117.86 8.76016 117.78 8.95017 117.54 8.95017C117.35 8.95017 117.28 8.85013 117.28 8.66013C117.28 8.44013 117.31 8.20019 117.35 8.03019C116.74 8.07019 115.98 8.52018 115.46 8.90018C115.47 9.36018 115.49 9.59016 115.21 9.69016C115.05 9.75016 114.84 9.68019 114.78 9.53019C114.58 9.03019 114.52 8.02018 114.52 7.21018V7.20017ZM114.97 12.4002C114.97 12.2102 114.98 12.0202 115.04 11.8402C115.27 11.2602 115.66 10.5902 116.11 10.0802C116.25 9.92017 116.37 9.81017 116.49 9.70017C116.65 9.57017 116.98 9.57017 117.11 9.70017C117.24 9.82017 117.25 9.95017 117.24 10.0802C117.23 10.2402 116.88 10.4602 116.62 10.8402C116.94 11.0402 117.05 11.2702 117.05 11.5902C117.05 12.2102 116.34 13.1601 115.72 13.1601C115.27 13.1601 114.97 12.8402 114.97 12.4002ZM116.29 11.3702C116.04 11.3702 115.71 12.2201 115.71 12.4101C116.1 12.3801 116.42 11.8602 116.42 11.5602C116.42 11.5002 116.42 11.3702 116.29 11.3702Z" fill="#231F20"/>
<path d="M120.19 9.35034C120.19 9.19034 120.35 9.08035 120.42 9.05035C121.75 8.49035 122.7 8.36035 124.2 8.36035H124.96C125.59 8.36035 126.08 8.43039 126.44 8.52039C126.77 8.59039 127.13 8.75037 127 9.07037C126.97 9.14037 126.86 9.14038 126.77 9.14038C126.54 9.14038 126.02 9.08034 125.63 9.04034C125.36 9.01034 125.08 9.00037 124.81 9.00037C123.7 9.00037 122.71 9.10035 121.67 9.42035C121.37 9.51035 120.86 9.80037 120.6 9.82037C120.3 9.85037 120.18 9.59035 120.18 9.36035L120.19 9.35034ZM121.92 6.64038C121.92 5.77038 122.6 4.94038 123 4.58038C123.12 4.48038 123.22 4.52039 123.36 4.46039C123.43 4.43039 123.48 4.36035 123.65 4.36035C124.05 4.36035 124.34 4.8504 124.34 5.2804C124.34 6.1704 123.69 7.18035 122.61 7.23035C122.23 7.24035 121.92 7.03038 121.92 6.64038ZM122.54 12.1603C122.54 11.2803 122.97 10.6504 123.38 9.90039C123.41 9.84039 123.52 9.74035 123.63 9.73035C123.79 9.69035 124.15 9.69035 124.21 9.86035C124.28 10.0504 124.07 10.3104 123.98 10.4504C123.92 10.5404 123.84 10.6204 123.76 10.8004C123.68 10.9804 123.56 11.1904 123.46 11.4504C123.4 11.6104 123.34 11.7504 123.34 11.9304C123.34 12.1604 123.51 12.1904 123.76 12.1504C124.71 11.9604 125.48 11.5604 126.41 11.4404C126.73 11.4004 126.76 11.9604 126.4 12.0304C126.04 12.1004 124.08 12.8704 123.72 12.9404C123.65 12.9504 123.43 13.0004 123.32 13.0004H123.25C122.79 13.0004 122.56 12.6004 122.56 12.1804L122.54 12.1603ZM123.63 5.01038C123.3 5.21038 122.76 5.99034 122.76 6.54034C123.19 6.54034 123.73 5.83034 123.73 5.29034C123.73 5.17034 123.69 5.09039 123.63 5.02039V5.01038Z" fill="#231F20"/>
<path d="M131.39 8.54016C131.36 7.92016 131.69 7.39018 132.02 6.81018C132.22 6.48018 132.44 6.10017 132.61 5.86017C132.83 5.57017 133.1 5.54019 133.35 5.76019C133.41 5.82019 133.44 5.99016 133.29 6.35016C133.25 6.42016 133.19 6.52021 133.13 6.65021C133.32 6.72021 133.71 6.95021 133.66 7.59021C133.65 7.88021 133.41 8.3502 133.13 8.6402C132.88 8.8902 132.54 9.14017 132.09 9.17017C131.84 9.18017 131.41 9.04016 131.38 8.54016H131.39ZM132.83 7.13019C132.64 7.25019 132.24 7.98021 132.21 8.40021C132.46 8.44021 133.09 8.08017 133.07 7.49017C133.07 7.35017 132.94 7.17019 132.82 7.13019H132.83ZM137.92 7.10016C137.73 7.16016 137.24 7.33016 136.8 7.48016C136.66 7.52016 135.81 7.80017 135.55 7.86017C135.29 7.92017 134.99 8.00017 134.76 8.05017C134.5 8.08017 134.28 7.98017 134.28 7.67017C134.28 7.44017 134.54 7.32021 134.76 7.28021C134.88 7.24021 135.38 7.14018 135.44 7.12018C135.7 7.06018 136.09 6.9502 136.26 6.8902C136.81 6.7302 137.98 6.41017 138.13 5.92017C138.19 5.72017 138.25 5.50019 138.35 5.26019C138.45 5.07019 138.55 4.91016 138.81 4.91016C139.04 4.91016 139.17 5.05017 139.19 5.30017C139.22 5.79017 138.79 6.14016 138.73 6.73016C138.64 7.36016 138.64 8.75016 138.59 9.35016C138.58 9.49016 138.56 9.70016 138.55 9.73016C138.48 9.99016 138.19 9.98016 138.05 9.73016C137.98 9.61016 137.96 9.38017 137.95 9.24017C137.92 8.79017 137.94 7.57017 137.95 7.11017L137.92 7.10016ZM135.28 11.6302C135.28 11.2102 135.4 10.8802 135.57 10.4802C135.71 10.1902 136.09 9.25016 136.42 9.23016C136.61 9.22016 136.95 9.30018 136.97 9.50018C136.98 9.69018 136.72 9.95018 136.61 10.1802C136.44 10.5102 136.31 10.6102 136.21 11.1602C136.2 11.2302 136.18 11.3502 136.25 11.4102C136.38 11.5402 136.78 11.3702 136.86 11.3402C137.61 11.0202 138.55 10.7302 139.57 10.5802C139.84 10.5202 140.03 10.5502 140.22 10.6202C140.32 10.6502 140.36 11.1102 140.13 11.1502C140.01 11.1802 139.57 11.2502 139.31 11.3102C138.75 11.4702 138.07 11.6602 137.38 11.9402C136.96 12.1102 136.54 12.3902 135.82 12.3002C135.52 12.2702 135.29 11.9402 135.29 11.6402L135.28 11.6302Z" fill="#231F20"/>
<path d="M142.01 10.2003C141.87 10.4203 141.63 10.8203 141.43 11.0703C141.26 11.2703 141.11 11.3402 140.91 11.2902C140.61 11.2002 140.53 10.9402 140.66 10.7302C140.95 10.2702 141.48 9.43025 141.73 9.01025C142.19 8.23025 142.55 7.55026 142.71 6.89026C142.72 6.82026 142.74 6.66027 142.74 6.59027C142.68 6.56027 142.49 6.53023 142.39 6.55023C141.94 6.61023 141.5 7.03023 141.11 7.11023C140.89 7.15023 140.78 6.85025 140.78 6.69025C140.78 6.56025 140.78 6.39026 140.95 6.27026C141.4 5.98026 141.95 5.74025 142.46 5.69025C143.27 5.62025 143.57 6.01026 143.57 6.58026C143.57 7.23026 143.38 7.73023 143.11 8.30023C142.95 8.63023 142.73 9.04022 142.56 9.41022C142.76 9.91022 143.25 10.8102 143.73 11.1702C143.95 11.3402 144.08 11.4602 144.29 11.6002C144.41 11.6702 144.38 11.8003 144.33 11.9003C144.23 12.1303 143.98 12.1202 143.81 12.0602C143 11.7902 142.25 10.6603 141.99 10.2003H142.01ZM146.95 10.9003C146.86 10.6703 146.75 10.0103 146.76 9.53027C146.76 9.34027 146.83 8.61021 146.79 8.22021C146.29 8.71021 145.77 9.03024 145.19 9.43024C145.07 9.52024 144.58 9.82025 144.51 9.88025C144.25 10.1102 144.08 10.2303 143.83 10.1403C143.56 10.0503 143.51 9.76025 143.6 9.51025C143.72 9.19025 144.09 9.08024 144.35 8.93024C145.13 8.44024 145.75 8.06021 146.43 7.47021C146.68 7.27021 146.92 6.91027 147.04 6.59027C147.1 6.45027 147.14 5.97021 147.52 5.97021C147.72 5.97021 148.04 6.22024 148.04 6.50024C148.04 6.63024 147.95 6.76025 147.91 6.88025C147.84 7.07025 147.81 7.46026 147.79 7.64026C147.73 8.36026 147.6 9.18023 147.6 9.92023C147.6 10.6102 147.77 11.0603 148.13 11.6503C148.23 11.8203 148.01 11.9702 147.8 11.9402C147.32 11.8802 147.09 11.3103 146.95 10.9003ZM149.11 9.88025C149.11 9.30025 149.23 8.73027 149.33 8.09027C149.45 7.34027 149.6 6.66027 149.66 5.84027C149.67 5.62027 149.66 4.99023 149.99 4.99023C150.24 4.99023 150.67 5.09025 150.64 5.57025C150.63 5.84025 150.44 7.13027 150.41 7.40027C150.32 8.19027 150.09 9.17025 149.96 9.76025C149.93 9.88025 149.82 10.5502 149.79 10.6702C149.75 10.8302 149.54 10.8602 149.47 10.8602C149.15 10.8602 149.12 10.6103 149.11 10.3303V9.88025Z" fill="#231F20"/>
<path d="M152.06 9.69061C151.97 9.14061 152.1 7.25061 152.35 6.19061C152.39 6.00061 152.42 5.66058 152.83 5.66058C153 5.66058 153.22 5.85063 153.18 6.08063C153.11 6.46063 153.04 7.22063 152.95 7.58063C152.88 7.91063 152.82 8.62063 152.81 9.08063C152.8 9.35063 152.95 9.44062 153.11 9.38062C153.93 9.12062 155.2 8.47064 155.73 8.34064C155.86 8.31064 155.93 8.38058 155.98 8.47058C156.02 8.59058 155.99 8.77063 155.84 8.90063C155.68 9.04063 155.49 9.16064 155.31 9.28064C154.99 9.48064 153.59 10.1706 152.95 10.3006C152.59 10.3706 152.16 10.1406 152.08 9.69061H152.06ZM157.05 11.6006C157.01 11.4406 157.01 10.0106 156.99 9.90063C156.98 9.78063 156.92 9.70062 156.93 9.57062C157.1 8.06062 157.33 6.0206 157.67 4.4906C157.71 4.3206 157.76 4.10059 158 4.10059C158.27 4.10059 158.45 4.2706 158.45 4.5506C158.45 4.8806 158.29 5.17061 158.23 5.44061C158.03 6.33061 157.87 7.88063 157.81 8.83063C158.27 8.61063 159.41 8.40062 159.97 8.38062C159.97 8.38062 160.26 8.37063 160.32 8.39062C160.41 8.43062 160.46 8.46063 160.42 8.65063C160.35 8.95063 158.83 9.1406 158.23 9.4906C157.93 9.6606 157.77 9.91064 157.77 10.2806C157.77 10.6806 157.9 11.9406 157.9 12.3306C157.9 12.4906 157.71 12.5606 157.61 12.5606C157.16 12.5606 157.12 11.8806 157.05 11.5906V11.6006Z" fill="#231F20"/>
<path d="M164.55 15.9405C164.55 15.8405 164.56 15.7105 164.64 15.5605C164.76 15.3305 164.9 15.1605 165.06 14.9805C165.49 14.4805 165.82 14.0305 166.21 13.5805C166.3 13.4905 166.37 13.3805 166.47 13.2505C166.25 13.2605 165.99 13.2805 165.49 13.2505C165.14 13.2405 164.93 13.0205 164.93 12.6605C164.93 12.4105 165.05 12.2405 165.18 12.0305C165.31 11.8305 165.54 11.5005 165.68 11.2705C165.85 11.0005 166.11 10.6405 166.11 10.4205C165.75 10.3805 165.32 10.5405 165.04 10.6805C164.85 10.7805 164.75 10.9005 164.56 11.0305C164.33 11.1905 163.98 10.8305 164.13 10.5405C164.38 10.2905 164.61 10.1405 164.84 10.0205C165.22 9.83051 165.63 9.75051 166.15 9.77051C166.73 9.80051 166.84 10.0705 166.84 10.4205C166.84 10.7405 166.67 11.1405 166.42 11.5405C166.22 11.8705 166.06 12.1305 165.81 12.5205C166.21 12.5105 166.63 12.5205 166.96 12.5305C167.36 12.5405 167.57 13.0105 167.28 13.3805C167.05 13.7105 166.85 13.9705 166.52 14.3605C166.25 14.6905 166.04 14.9805 165.7 15.4005C165.64 15.4705 165.54 15.6205 165.48 15.7205C165.83 15.6905 166.43 15.3605 166.78 15.1905C166.88 15.1505 166.97 15.1005 167.01 15.0905C167.33 14.9905 167.51 15.2805 167.38 15.4705C167.28 15.6305 167.16 15.7005 166.95 15.8705C166.92 15.9005 166.52 16.1205 166.43 16.1605C166.08 16.3505 165.64 16.4805 165.31 16.4905C164.85 16.5005 164.53 16.3705 164.55 15.9405ZM164.77 8.29047C164.78 8.10047 164.93 8.00051 165.19 7.83051C165.85 7.38051 166.14 7.0505 166.44 6.4505C166.6 6.1305 166.61 5.83052 166.64 5.53052C166.65 5.39052 166.77 5.2705 166.94 5.2605C167.3 5.2305 167.43 5.40048 167.4 5.74048C167.33 6.40048 167.14 7.02051 166.42 7.77051C167.86 7.54051 168.71 7.35049 169.97 7.31049C170.13 7.31049 170.34 7.32052 170.34 7.53052C170.34 7.76052 170.24 7.80046 170.02 7.85046C169.43 7.97046 169.13 8.0405 168.52 8.1405C168.52 8.1405 167.7 8.31048 167.41 8.37048C166.76 8.49048 165.84 8.7605 165.17 8.7605C164.91 8.7605 164.72 8.63049 164.75 8.31049L164.77 8.29047ZM164.81 4.7605C164.81 3.8905 165.49 3.0605 165.89 2.7005C166.01 2.6005 166.11 2.64051 166.25 2.58051C166.32 2.55051 166.37 2.48047 166.54 2.48047C166.94 2.48047 167.23 2.97051 167.23 3.40051C167.23 4.29051 166.58 5.30046 165.5 5.35046C165.12 5.36046 164.81 5.1505 164.81 4.7605ZM166.53 3.13049C166.2 3.33049 165.66 4.11046 165.66 4.66046C166.09 4.66046 166.63 3.95046 166.63 3.41046C166.63 3.29046 166.59 3.2105 166.53 3.1405V3.13049ZM167.45 12.4205C167.45 12.0305 168.2 11.8705 168.52 11.7605C168.51 11.6905 168.49 11.6005 168.49 11.5405C168.49 11.2505 168.52 11.0205 168.61 10.7805C168.75 10.2905 169 9.83046 169.17 9.35046C169.24 9.15046 169.33 8.8205 169.59 8.8205C169.76 8.8205 170.02 8.95049 170.01 9.25049C170 9.41049 169.94 9.5205 169.89 9.6405C169.66 10.1705 169.27 11.1505 169.26 11.5305C169.58 11.4605 169.85 11.3605 170.14 11.3005C170.41 11.2405 170.69 11.2105 171.26 11.2105C171.56 11.2105 171.76 11.2205 172.02 11.3105C172.18 11.3705 172.21 11.7105 172.03 11.7605C171.71 11.8305 171.48 11.8605 171.18 11.8905C170.5 11.9605 169.85 12.1505 169.16 12.3905C168.94 12.4605 168.7 12.5905 168.48 12.6805C168.36 12.7205 168.1 12.8705 167.93 12.8705C167.7 12.8705 167.44 12.6805 167.44 12.4205H167.45ZM168.96 14.6005C168.96 14.2705 169.05 13.8805 169.22 13.5305C169.38 13.2005 169.74 12.6405 170 12.6405C170.26 12.6405 170.72 13.0705 170.76 13.7205C170.77 13.9905 170.75 14.3305 170.6 14.5305C170.27 14.9905 169.91 15.3205 169.53 15.3205C169.15 15.3205 168.95 14.9305 168.95 14.6005H168.96ZM170.14 13.4305C169.84 13.7005 169.62 14.1905 169.62 14.5705C170.01 14.4005 170.17 14.1105 170.17 13.7005C170.17 13.6005 170.16 13.5105 170.14 13.4305Z" fill="#231F20"/>
<path d="M172.75 6.16016C172.75 5.61016 174.39 5.38018 174.84 5.37018C175.24 5.36018 175.85 5.40016 175.85 5.73016C175.85 5.89016 175.78 6.13018 175.62 6.12018C175.07 6.05018 174.38 6.18016 173.82 6.35016C173.59 6.42016 173.42 6.52021 173.14 6.65021C172.89 6.77021 172.75 6.38016 172.75 6.16016ZM172.93 9.46021C172.94 9.0802 173.16 7.61016 173.36 7.48016C173.42 7.42016 173.56 7.34017 173.79 7.42017C173.95 7.48017 174.05 7.59021 174.02 7.78021C173.98 8.05021 173.89 8.52017 173.83 8.80017C173.79 9.00017 173.77 9.18019 173.77 9.38019C173.77 9.63019 173.96 9.6502 174.04 9.6402C174.6 9.5702 175.08 9.45021 175.54 9.28021C175.93 9.14021 177.11 8.56018 177.33 8.50018C177.45 8.47018 177.56 8.56019 177.59 8.69019C177.63 8.92019 177.55 9.04017 177.45 9.11017C177.29 9.23017 176.51 9.67017 176.21 9.80017C175.68 10.0302 175.1 10.2902 174.59 10.4102C174.47 10.4402 174.09 10.5702 173.72 10.5702C173.49 10.5702 173.2 10.5002 173.07 10.3002C172.94 10.1102 172.88 9.8102 172.91 9.46021H172.93ZM178.45 12.4802C178.44 12.3602 178.36 10.6502 178.35 10.5502C178.31 10.3302 178.25 10.1702 178.25 9.93018C178.25 9.83018 178.29 9.68017 178.29 9.61017C178.3 9.32017 178.42 8.04017 178.46 7.74017C178.62 6.75017 178.75 5.7102 178.91 4.7002C178.94 4.5002 179.24 4.41016 179.43 4.41016C179.65 4.41016 179.72 4.54018 179.72 4.68018C179.72 5.11018 179.62 5.7002 179.53 6.1402C179.36 6.9602 179.15 8.09016 179.15 8.98016V9.30017C179.4 9.26017 180.29 8.90019 180.59 8.82019C181.07 8.72019 181.38 8.59021 181.84 8.53021C182.11 8.50021 182.27 8.5902 182.27 8.7002C182.27 8.8902 182 8.99021 181.84 9.03021C180.99 9.38021 179.92 9.65021 179.14 10.2102C179.14 10.5302 179.17 12.0002 179.2 12.3102C179.23 12.5802 179.19 12.7702 178.95 12.8102C178.7 12.8502 178.45 12.6802 178.43 12.4602L178.45 12.4802Z" fill="#231F20"/>
<path d="M186.2 8.44061C186.2 8.14061 186.42 8.07062 186.66 8.07062C186.76 8.07062 186.96 8.08063 187.08 8.08063C187.76 8.08063 189.21 7.99059 189.89 7.92059C189.95 7.92059 190.15 7.89062 190.39 7.89062C190.56 7.89062 190.78 7.93061 190.78 8.19061C190.78 8.35061 190.66 8.48063 190.52 8.52063C190.19 8.62063 189.81 8.6406 189.48 8.6806C188.99 8.7406 187.62 8.85059 187.09 8.85059H186.7C186.34 8.82059 186.2 8.6806 186.2 8.4306V8.44061Z" fill="#231F20"/>
</svg>
