<svg width="106" height="83" viewBox="0 0 106 70" fill="none" xmlns="http://www.w3.org/2000/svg">
<path d="M98.52 8.92038C98.52 8.92038 98.51 8.92038 98.48 8.94038C98.45 8.95038 98.41 8.96038 98.37 8.97038C98.29 8.98038 98.2 8.97038 98.11 8.94038C98.02 8.91038 97.93 8.84038 97.86 8.75038C97.82 8.70038 97.8 8.66038 97.78 8.62038C97.76 8.58038 97.76 8.55038 97.76 8.56038L106.64 7.46038C105.81 0.71038 98.16 -2.09962 93.06 1.83038L98.52 8.92038ZM98.09 11.2004C98.03 10.7304 98.06 10.1104 98.22 9.57038C98.39 9.01038 98.58 8.88038 98.52 8.92038L93.06 1.83038C91.18 3.28038 90.15 5.28038 89.64 7.05038C89.12 8.83038 88.99 10.7304 89.23 12.4304L98.1 11.2004H98.09ZM98.3 11.8504C98.19 11.6504 98.12 11.4404 98.1 11.2304L89.23 12.4004C89.4 13.7104 89.81 14.9704 90.45 16.1404L98.31 11.8604L98.3 11.8504ZM88.87 13.9604C88.87 13.9604 89 13.9204 89.19 13.9504C89.38 13.9704 89.59 14.0404 89.75 14.1404C89.92 14.2404 89.98 14.3204 89.97 14.3104C89.95 14.2804 89.89 14.1604 89.89 13.9904H98.84C98.84 10.3904 96.6 7.77038 94.27 6.41038C91.95 5.06038 88.85 4.48038 85.92 5.50038L88.87 13.9504V13.9604ZM86.77 17.6004C86.96 15.4804 88.09 14.2204 88.87 13.9504L85.92 5.50038C80.67 7.33038 78.23 12.5904 77.86 16.8104L86.78 17.6004H86.77ZM88.16 25.2904C87.2 22.1104 86.58 19.7804 86.77 17.6104L77.85 16.8204C77.48 20.9904 78.7 24.9504 79.58 27.8804L88.15 25.3004L88.16 25.2904ZM72.13 21.6304C73.64 21.1904 75.65 21.5304 77.31 22.6604C78.95 23.7804 79.51 25.1204 79.42 26.1904L88.34 26.9804C88.8 21.8104 85.86 17.6604 82.36 15.2704C78.87 12.8904 74.11 11.7304 69.62 13.0504L72.14 21.6404L72.13 21.6304ZM64.82 32.1204C65.42 26.9804 68.45 22.7104 72.13 21.6304L69.61 13.0404C61.29 15.4804 56.77 23.7904 55.92 31.0904L64.81 32.1204H64.82ZM65.34 40.6904C64.76 37.6704 64.5 34.8304 64.82 32.1304L55.93 31.0904C55.47 35.0304 55.87 38.8704 56.55 42.3904L65.34 40.7004V40.6904ZM65.54 45.3804C66.07 45.7004 66.32 46.0504 66.39 46.1404C66.47 46.2504 66.46 46.2704 66.41 46.1404C66.3 45.8704 66.16 45.4004 66.01 44.7204C65.87 44.0604 65.75 43.3504 65.65 42.6404C65.56 42.0304 65.44 41.2304 65.34 40.7004L56.55 42.3704C56.61 42.6804 56.67 43.1404 56.8 43.9804C56.91 44.7304 57.06 45.6604 57.26 46.5904C57.45 47.4904 57.73 48.5704 58.14 49.5604C58.47 50.3604 59.25 52.0204 60.93 53.0304L65.54 45.3604V45.3804ZM61.41 45.5404C61.26 45.8604 61.19 45.9004 61.32 45.7704C61.39 45.7004 61.79 45.2904 62.55 45.0404C62.97 44.9004 63.48 44.8204 64.05 44.8804C64.62 44.9404 65.12 45.1304 65.51 45.3604L60.97 53.0704C62.35 53.8804 63.91 54.0104 65.31 53.5504C66.51 53.1604 67.33 52.4304 67.79 51.9604C68.7 51.0104 69.26 49.8904 69.53 49.3304L61.42 45.5504L61.41 45.5404ZM61.58 41.1504C61.84 43.3004 61.76 44.7704 61.39 45.5704L69.53 49.2804C71.02 46.0104 70.73 42.3004 70.46 40.0804L61.57 41.1404L61.58 41.1504ZM58.32 34.7904C60.08 36.3104 61.29 38.6704 61.58 41.1504L70.47 40.0804C69.93 35.5804 67.76 31.1204 64.18 28.0204L58.32 34.7904ZM42.23 31.8404C48.36 30.6004 54.46 31.4604 58.31 34.8004L64.17 28.0304C57.42 22.1804 48.06 21.5304 40.45 23.0704L42.22 31.8404H42.23ZM15.27 63.2104C15.98 48.4604 27.75 34.7704 42.23 31.8404L40.46 23.0704C21.96 26.8104 7.24002 43.9304 6.34002 62.7804L15.28 63.2104H15.27ZM19.43 75.2604C16.48 73.1904 15.01 68.6004 15.28 63.2104L6.34002 62.7704C6.02002 69.2204 7.53997 77.8304 14.29 82.5804L19.44 75.2604H19.43ZM28.53 75.4604C25.5 77.0704 21.79 76.9304 19.43 75.2604L14.28 82.5804C19.83 86.4904 27.23 86.2904 32.74 83.3604L28.54 75.4604H28.53ZM35.04 66.9504C33.91 70.6804 31.54 73.8504 28.53 75.4604L32.75 83.3604C38.27 80.4104 41.94 75.0804 43.62 69.5504L35.05 66.9604L35.04 66.9504ZM28.38 46.6904C34.4 51.1804 37.23 59.7604 35.04 66.9604L43.6 69.5604C46.88 58.7504 42.76 46.2704 33.72 39.5204L28.37 46.6904H28.38ZM7.05999 46.0704C13.34 41.9304 22.36 42.2004 28.38 46.6904L33.73 39.5204C24.69 32.7704 11.55 32.3904 2.13 38.6004L7.04998 46.0704H7.05999ZM97.75 8.55038C98.05 11.0004 100.29 12.7504 102.74 12.4404C105.19 12.1404 106.94 9.90038 106.63 7.45038L97.75 8.55038ZM93.66 11.8104L98.1 11.2304C98.1 11.2304 98.1 11.2104 98.1 11.2004L93.67 11.8104H93.66ZM94.37 13.9904L90.44 16.1304C91.42 17.9304 93.49 18.8304 95.47 18.3304C97.45 17.8304 98.84 16.0404 98.84 13.9904H94.36H94.37ZM83.88 26.5804L79.6 27.8704C80.22 29.9204 82.21 31.2504 84.34 31.0304C86.47 30.8104 88.15 29.1104 88.34 26.9704L83.88 26.5804ZM60.38 31.6104L64.82 32.1304L60.37 31.6104H60.38ZM60.94 41.5404L65.34 40.7004L60.95 41.5404H60.94ZM63.23 49.2104L60.92 53.0404C60.92 53.0404 60.94 53.0504 60.95 53.0604L63.22 49.2104H63.23ZM65.46 47.4304L69.52 49.3204C69.52 49.3204 69.53 49.3004 69.54 49.2904L65.47 47.4304H65.46ZM16.85 78.9204L19.43 75.2604L16.86 78.9204H16.85ZM30.64 79.4104L32.74 83.3604L30.63 79.4104H30.64ZM2.13 38.5904C0.0699999 39.9504 -0.510029 42.7204 0.849971 44.7904C2.20997 46.8504 4.97998 47.4304 7.04998 46.0704L2.13 38.6004V38.5904Z" fill="#040404"/>
<path d="M95.0099 4.89999C95.7699 4.28999 96.5099 4.27998 97.0499 4.51998C97.6199 4.75998 98.1299 5.33999 98.2399 6.24999L102.13 5.76998C101.85 3.51998 100.47 1.72998 98.59 0.919984C96.6799 0.0999835 94.4099 0.359984 92.5499 1.84998L94.9999 4.90999L95.0099 4.89999ZM93.5999 9.53999C93.4899 8.72999 93.5499 7.75999 93.8199 6.86999C94.0899 5.96999 94.5199 5.28999 95.0099 4.89999L92.5599 1.83998C91.2699 2.86998 90.4799 4.32999 90.0599 5.74999C89.6299 7.17999 89.5299 8.70999 89.7199 10.08L93.5999 9.53999ZM94.09 11.05C93.84 10.58 93.6699 10.07 93.5999 9.54999L89.7099 10.06C89.8399 11.06 90.1599 12.03 90.6399 12.92L94.0799 11.05H94.09ZM86.0399 9.57999C86.9199 9.26999 88.0699 9.40999 89.0199 9.96999C89.9599 10.52 90.4099 11.28 90.4099 11.99H94.3299C94.3299 9.51998 92.7899 7.62999 90.9999 6.57999C89.2199 5.53999 86.8799 5.13998 84.7499 5.87998L86.0399 9.57999ZM82.2699 15.38C82.5099 12.67 84.0099 10.29 86.0399 9.57999L84.7499 5.87998C80.7599 7.26998 78.6799 11.41 78.3599 15.04L82.2699 15.38ZM83.7499 24.01C82.8099 20.91 82.0199 18.11 82.2699 15.38L78.3599 15.04C78.0399 18.65 79.0899 22.15 79.9999 25.15L83.7499 24.02V24.01ZM69.4299 17.22C71.7799 16.53 74.5599 17.11 76.7299 18.58C78.8899 20.05 80.1199 22.19 79.9299 24.4L83.84 24.74C84.1899 20.73 81.9199 17.36 78.9499 15.33C75.9799 13.31 71.99 12.37 68.34 13.45L69.4399 17.21L69.4299 17.22ZM60.3199 29.84C60.9899 24.09 64.4399 18.69 69.4199 17.23L68.3199 13.47C61.2999 15.53 57.1999 22.7 56.4199 29.4L60.3099 29.85L60.3199 29.84ZM60.8699 39.17C60.2599 36.01 59.9599 32.89 60.3199 29.84L56.4299 29.38C56.0099 32.97 56.3699 36.53 57.0199 39.91L60.8699 39.17ZM62.2499 45.53C62.4399 45.64 62.32 45.66 62.09 45.11C61.89 44.64 61.7199 44 61.5599 43.25C61.3999 42.51 61.2799 41.74 61.1699 41.02C61.0699 40.34 60.9699 39.64 60.8799 39.17L57.03 39.9C57.1 40.27 57.1799 40.83 57.2999 41.61C57.4099 42.35 57.5499 43.21 57.7399 44.07C57.9199 44.91 58.1599 45.82 58.4899 46.61C58.7799 47.32 59.2999 48.32 60.2499 48.89L62.2699 45.53H62.2499ZM61.6899 44.6C61.6099 44.77 61.5099 44.96 61.4099 45.13C61.2999 45.31 61.2099 45.43 61.1399 45.5C61.0599 45.58 61.1199 45.5 61.3299 45.42C61.4499 45.38 61.6099 45.35 61.7999 45.37C61.9899 45.39 62.1399 45.45 62.2399 45.51L60.2499 48.89C60.9899 49.32 61.7999 49.39 62.5399 49.15C63.1899 48.94 63.6699 48.53 63.9799 48.21C64.5899 47.57 65.0199 46.75 65.2499 46.25L61.6999 44.59L61.6899 44.6ZM62.0799 38.85C62.3399 41.02 62.3699 43.11 61.6799 44.62L65.2499 46.25C66.4299 43.67 66.2299 40.59 65.9699 38.4L62.0799 38.86V38.85ZM57.9599 30.89C60.2299 32.85 61.7099 35.8 62.0799 38.85L65.9699 38.38C65.4999 34.45 63.6 30.58 60.53 27.92L57.9699 30.88L57.9599 30.89ZM39.7299 27.37C46.2799 26.05 53.2899 26.85 57.9599 30.89L60.53 27.93C54.59 22.79 46.1499 22.08 38.9599 23.53L39.7399 27.37H39.7299ZM10.7599 61.08C11.5299 45.18 24.1199 30.52 39.7299 27.37L38.9499 23.53C21.5799 27.04 7.68995 43.2 6.83995 60.9L10.7599 61.09V61.08ZM15.9799 75.32C11.9599 72.49 10.4799 66.78 10.7599 61.09L6.83995 60.9C6.53995 67.05 8.0399 74.53 13.7199 78.53L15.9699 75.32H15.9799ZM27.7199 75.68C23.9899 77.66 19.2499 77.62 15.9899 75.32L13.7299 78.52C18.3899 81.8 24.7499 81.7 29.5599 79.14L27.7199 75.68ZM35.4499 65.68C34.1699 69.92 31.4299 73.69 27.7099 75.68L29.5599 79.14C34.3799 76.57 37.6799 71.84 39.1999 66.82L35.4499 65.69V65.68ZM27.8799 42.67C34.7499 47.8 37.9399 57.47 35.4499 65.68L39.1999 66.82C42.1699 57.03 38.4199 45.64 30.2299 39.53L27.8899 42.67H27.8799ZM3.66991 41.97C10.8299 37.25 21.0099 37.55 27.8799 42.67L30.2199 39.53C22.0299 33.42 10.0499 33.07 1.50994 38.69L3.66991 41.96V41.97ZM98.2499 6.23998C98.3799 7.30998 99.3599 8.07998 100.44 7.94998C101.51 7.81998 102.28 6.83999 102.15 5.75999L98.2599 6.23998H98.2499ZM93.7899 3.36999L95.0099 4.89999L93.78 3.36999H93.7899ZM92.3699 11.99L90.6499 12.93C91.0799 13.72 91.9899 14.11 92.8599 13.89C93.7299 13.67 94.34 12.89 94.34 11.99H92.3799H92.3699ZM81.8799 24.58L79.9999 25.15C80.2699 26.05 81.1399 26.63 82.0799 26.53C83.0099 26.43 83.7499 25.69 83.8299 24.75L81.8799 24.58ZM58.9399 39.54L60.8699 39.17L58.9499 39.54H58.9399ZM61.2299 47.21L60.2199 48.89C60.2199 48.89 60.2299 48.89 60.2399 48.89L61.2399 47.2L61.2299 47.21ZM63.4599 45.43L65.2399 46.26C65.2399 46.26 65.2399 46.26 65.2399 46.25L63.4599 45.44V45.43ZM1.51995 38.69C0.619946 39.29 0.369948 40.5 0.959948 41.4C1.55995 42.3 2.76991 42.55 3.66991 41.96L1.50994 38.69H1.51995Z" fill="#F0E957"/>
</svg>
